# xmcd CD database file
#
# Track frame offsets:
#	150
#	20961
#	37291
#	57137
#	79606
#
# Disc length: 1298 seconds
#
# Revision: 1
# Processed by: cddbd v1.5.2PL0 Copyright (c) Steve Scherf et al.
# Submitted via: CDex 1.70beta1
#
DISCID=3e051005
DTITLE=leviathan brothers - leviathan brothers
DYEAR=2005
DGENRE=Jazz
TTITLE0=one
TTITLE1=agamemnon's grief
TTITLE2=perfect day
TTITLE3=criminal
TTITLE4=keep it simple
EXTD=YEAR: 2005
EXTT0=
EXTT1=
EXTT2=
EXTT3=
EXTT4=
PLAYORDER=
